<?xml version="1.0" encoding="UTF-8" standalone="no"?>
<!-- Created with Inkscape (http://www.inkscape.org/) -->

<svg
   width="100"
   height="100"
   viewBox="0 0 26.458333 26.458334"
   version="1.1"
   id="svg2384"
   inkscape:version="1.1 (c68e22c387, 2021-05-23)"
   sodipodi:docname="data_nostation.svg"
   xmlns:inkscape="http://www.inkscape.org/namespaces/inkscape"
   xmlns:sodipodi="http://sodipodi.sourceforge.net/DTD/sodipodi-0.dtd"
   xmlns="http://www.w3.org/2000/svg"
   xmlns:svg="http://www.w3.org/2000/svg">
  <sodipodi:namedview
     id="namedview2386"
     pagecolor="#ffffff"
     bordercolor="#666666"
     borderopacity="1.0"
     inkscape:pageshadow="2"
     inkscape:pageopacity="0.0"
     inkscape:pagecheckerboard="0"
     inkscape:document-units="mm"
     showgrid="false"
     units="px"
     inkscape:zoom="1.4467452"
     inkscape:cx="396.75265"
     inkscape:cy="63.245413"
     inkscape:window-width="2400"
     inkscape:window-height="1271"
     inkscape:window-x="2391"
     inkscape:window-y="-9"
     inkscape:window-maximized="1"
     inkscape:current-layer="layer1" />
  <defs
     id="defs2381" />
  <g
     inkscape:label="Calque 1"
     inkscape:groupmode="layer"
     id="layer1">
    <g
       id="g534015"
       transform="matrix(2.7703634,0,0,2.7703634,-676.06674,-464.28747)"
       style="display:inline">
      <path
         style="display:inline;fill:#42a4a0;fill-opacity:1;stroke-width:0.0234324"
         d="m 248.37355,174.09048 c -0.22245,-0.0599 -0.38419,-0.1545 -0.55764,-0.32622 -0.35293,-0.34942 -0.43199,-0.73319 -0.27715,-1.34526 0.12301,-0.48629 0.51009,-1.13082 0.9611,-1.60036 0.17899,-0.18635 0.2256,-0.18517 0.40753,0.0102 0.57505,0.61753 0.93723,1.30129 1.00939,1.90562 0.0523,0.43818 -0.0474,0.74099 -0.33912,1.02981 -0.254,0.25147 -0.53202,0.36409 -0.89165,0.36114 -0.10362,-10e-4 -0.24422,-0.0165 -0.31246,-0.0349 z m 0.63198,-0.44973 c 0.14746,-0.0654 0.31497,-0.22421 0.38827,-0.36814 0.0723,-0.14195 0.0961,-0.39273 0.0524,-0.55161 -0.0278,-0.1012 -0.0299,-0.10309 -0.0521,-0.0469 -0.18353,0.46426 -0.45818,0.74642 -0.87308,0.89687 -0.17361,0.063 -0.17361,0.0694 0,0.11826 0.0981,0.0276 0.37543,-1.8e-4 0.48448,-0.0485 z"
         id="path435954-4-8-4" />
      <rect
         style="opacity:1;fill:#42a4a0;fill-opacity:0.447284;stroke:none;stroke-width:0.2;stroke-linecap:round;stroke-linejoin:round;stroke-miterlimit:4;stroke-dasharray:none;stroke-opacity:1;paint-order:stroke markers fill"
         id="rect531181"
         width="8.5954428"
         height="8.5954428"
         x="244.51292"
         y="168.06834"
         ry="1.5606263" />
    </g>
  </g>
</svg>
