<?xml version="1.0" encoding="UTF-8" standalone="no"?>
<!-- Created with Inkscape (http://www.inkscape.org/) -->

<svg
   width="75.959114"
   height="75.959114"
   viewBox="0 0 20.097515 20.097516"
   version="1.1"
   id="svg2384"
   inkscape:version="1.1 (c68e22c387, 2021-05-23)"
   sodipodi:docname="get_zip.svg"
   xmlns:inkscape="http://www.inkscape.org/namespaces/inkscape"
   xmlns:sodipodi="http://sodipodi.sourceforge.net/DTD/sodipodi-0.dtd"
   xmlns="http://www.w3.org/2000/svg"
   xmlns:svg="http://www.w3.org/2000/svg">
  <sodipodi:namedview
     id="namedview2386"
     pagecolor="#ffffff"
     bordercolor="#666666"
     borderopacity="1.0"
     inkscape:pageshadow="2"
     inkscape:pageopacity="0.0"
     inkscape:pagecheckerboard="0"
     inkscape:document-units="mm"
     showgrid="false"
     units="px"
     inkscape:zoom="1.4467452"
     inkscape:cx="-199.06753"
     inkscape:cy="-62.554208"
     inkscape:window-width="2400"
     inkscape:window-height="1271"
     inkscape:window-x="2391"
     inkscape:window-y="-9"
     inkscape:window-maximized="1"
     inkscape:current-layer="text109784-5-9-4-6-7-7-5-7-6-1-3"
     fit-margin-top="1"
     fit-margin-right="1"
     fit-margin-bottom="1"
     fit-margin-left="1" />
  <defs
     id="defs2381" />
  <g
     inkscape:label="Calque 1"
     inkscape:groupmode="layer"
     id="layer1"
     transform="translate(-145.25737,-33.366425)">
    <g
       aria-label="6 à 11"
       id="text109784-5-9-4-6-7-7-5-7-6-1-3"
       style="font-size:10.5931px;line-height:1.25;font-family:Roboto;-inkscape-font-specification:'Roboto, Normal';display:inline;fill:#1a1a1a;stroke-width:0.733145">
      <rect
         style="display:inline;fill:#00847f;fill-opacity:0.335463;stroke:none;stroke-width:0.365001;stroke-linecap:round;stroke-linejoin:round;stroke-miterlimit:4;stroke-dasharray:none;stroke-opacity:1;paint-order:stroke markers fill"
         id="rect1121637"
         width="19.568348"
         height="19.568348"
         x="145.52196"
         y="33.631008"
         ry="5.9207397" />
      <path
         style="display:inline;fill:#00837e;fill-opacity:1;stroke-width:0.0174072"
         d="m 157.69543,47.934247 c -0.71571,-0.11325 -1.34133,-0.61009 -1.59434,-1.26615 -0.11398,-0.29557 -0.12654,-0.36973 -0.12705,-0.7504 -4.3e-4,-0.32502 0.003,-0.35971 0.0467,-0.52222 0.026,-0.0957 0.0899,-0.26124 0.1421,-0.36778 0.61526,-1.25611 2.25258,-1.54082 3.25333,-0.56572 1.00972,0.98385 0.73595,2.66464 -0.53486,3.28367 -0.29643,0.1444 -0.47662,0.18565 -0.83778,0.19181 -0.16276,0.003 -0.31942,10e-4 -0.34814,-0.003 z m 0.38817,-0.74453 c 0.0258,-0.0136 0.22521,-0.20399 0.44302,-0.42299 l 0.39601,-0.39818 v -0.0805 c 0,-0.0666 -0.009,-0.0897 -0.0536,-0.13404 -0.0443,-0.0443 -0.0675,-0.0536 -0.13346,-0.0536 -0.0792,0 -0.082,0.002 -0.31199,0.22982 l -0.23209,0.22981 -10e-5,-0.86953 c -6e-5,-0.526 -0.007,-0.89428 -0.0175,-0.93219 -0.0203,-0.073 -0.0619,-0.11554 -0.13231,-0.13519 -0.0774,-0.0216 -0.15983,0.008 -0.19883,0.0723 -0.0327,0.0536 -0.0341,0.0931 -0.0341,0.96898 l -6e-5,0.91308 -0.24074,-0.23855 c -0.23376,-0.23162 -0.2429,-0.23855 -0.31507,-0.23855 -0.0613,0 -0.0847,0.0104 -0.13351,0.0592 -0.0674,0.0674 -0.0786,0.14745 -0.0307,0.21981 0.0417,0.0631 0.69962,0.72554 0.7792,0.78464 0.0749,0.0556 0.14353,0.0638 0.21584,0.0256 z m -6.41655,-0.75089 c -0.18184,-0.0489 -0.3658,-0.19636 -0.44897,-0.35982 -0.0982,-0.19306 -0.0939,-0.0558 -0.0939,-2.94056 0,-1.887964 0.006,-2.685511 0.0194,-2.751011 0.0487,-0.231417 0.19947,-0.423587 0.41101,-0.523797 l 0.11792,-0.0559 1.34623,-0.005 1.34623,-0.005 0.36956,0.36597 0.36955,0.365967 h 1.75764 c 1.902,0 1.84985,-0.002 2.03941,0.0937 0.1687,0.0855 0.32383,0.288707 0.36856,0.482727 0.011,0.0475 0.0178,0.538187 0.018,1.297854 l 4.2e-4,1.22151 -0.0446,0.053 c -0.0651,0.0774 -0.13494,0.0844 -0.2703,0.0272 -0.34177,-0.14458 -0.6138,-0.20081 -0.97327,-0.2012 -0.27863,-3e-4 -0.41775,0.0168 -0.65396,0.0805 -0.42523,0.1147 -0.78566,0.33082 -1.09988,0.65951 -0.34772,0.36371 -0.56502,0.80733 -0.63877,1.30402 -0.0302,0.20343 -0.0344,0.46897 -0.0102,0.63697 0.0184,0.1274 -0.003,0.2042 -0.0711,0.2517 -0.0369,0.0258 -0.20818,0.0283 -1.90357,0.0272 -1.55843,-9.6e-4 -1.87818,-0.005 -1.95558,-0.026 z"
         id="path1121821" />
    </g>
  </g>
</svg>
