<?xml version="1.0" encoding="UTF-8" standalone="no"?>
<!-- Created with Inkscape (http://www.inkscape.org/) -->

<svg
   width="75.959114"
   height="75.959114"
   viewBox="0 0 20.097515 20.097516"
   version="1.1"
   id="svg2384"
   inkscape:version="1.1 (c68e22c387, 2021-05-23)"
   sodipodi:docname="get_url.svg"
   xmlns:inkscape="http://www.inkscape.org/namespaces/inkscape"
   xmlns:sodipodi="http://sodipodi.sourceforge.net/DTD/sodipodi-0.dtd"
   xmlns="http://www.w3.org/2000/svg"
   xmlns:svg="http://www.w3.org/2000/svg">
  <sodipodi:namedview
     id="namedview2386"
     pagecolor="#ffffff"
     bordercolor="#666666"
     borderopacity="1.0"
     inkscape:pageshadow="2"
     inkscape:pageopacity="0.0"
     inkscape:pagecheckerboard="0"
     inkscape:document-units="mm"
     showgrid="false"
     units="px"
     inkscape:zoom="1.4467452"
     inkscape:cx="-302.05734"
     inkscape:cy="-168.30884"
     inkscape:window-width="2400"
     inkscape:window-height="1271"
     inkscape:window-x="2391"
     inkscape:window-y="-9"
     inkscape:window-maximized="1"
     inkscape:current-layer="text109784-5-9-4-6-7-7-5-7-6-1-3"
     fit-margin-top="1"
     fit-margin-right="1"
     fit-margin-bottom="1"
     fit-margin-left="1" />
  <defs
     id="defs2381" />
  <g
     inkscape:label="Calque 1"
     inkscape:groupmode="layer"
     id="layer1"
     transform="translate(-172.5165,-61.357079)">
    <g
       aria-label="6 à 11"
       id="text109784-5-9-4-6-7-7-5-7-6-1-3"
       style="font-size:10.5931px;line-height:1.25;font-family:Roboto;-inkscape-font-specification:'Roboto, Normal';display:inline;fill:#1a1a1a;stroke-width:0.733145">
      <rect
         style="display:inline;fill:#00847f;fill-opacity:0.335463;stroke:none;stroke-width:0.365001;stroke-linecap:round;stroke-linejoin:round;stroke-miterlimit:4;stroke-dasharray:none;stroke-opacity:1;paint-order:stroke markers fill"
         id="rect1121637-6"
         width="19.568348"
         height="19.568348"
         x="172.78108"
         y="61.621662"
         ry="5.9207397" />
      <path
         style="display:inline;fill:#00837e;fill-opacity:1;stroke-width:0.0152043"
         d="m 178.92446,75.009715 c -0.0827,-0.0395 -0.14269,-0.10649 -0.17097,-0.19096 -0.0235,-0.0702 -0.0245,-2.70438 -8.1e-4,-2.7888 0.009,-0.032 0.0401,-0.0846 0.0693,-0.11694 0.14814,-0.16397 0.41354,-0.13265 0.52257,0.0617 l 0.0381,0.0678 0.007,0.74412 0.007,0.74413 0.18079,-0.3032 c 0.0994,-0.16675 0.19522,-0.31924 0.21286,-0.33884 0.0702,-0.0781 0.2007,-0.11627 0.31336,-0.0918 0.13114,0.0285 0.16041,0.0611 0.3725,0.41399 l 0.19766,0.32891 0.007,-0.75626 c 0.008,-0.83858 0.004,-0.80192 0.11195,-0.89683 0.15444,-0.1356 0.39465,-0.093 0.49622,0.088 l 0.038,0.0678 0.004,1.34413 c 0.003,1.15349 8.1e-4,1.35515 -0.0184,1.42192 -0.0538,0.18529 -0.256,0.28348 -0.42745,0.20764 -0.0408,-0.018 -0.0871,-0.0444 -0.1028,-0.0587 -0.0157,-0.0143 -0.18991,-0.29481 -0.38705,-0.62347 -0.28414,-0.47373 -0.36218,-0.59349 -0.37656,-0.57789 -0.01,0.0109 -0.15702,0.25231 -0.32675,0.53663 -0.16973,0.28432 -0.33117,0.55146 -0.35877,0.59363 -0.0941,0.14385 -0.26203,0.19432 -0.41047,0.12341 z m 2.94398,0.0155 c -0.0727,-0.0232 -0.17155,-0.12603 -0.19432,-0.20223 -0.0248,-0.0829 -0.027,-2.70447 -0.002,-2.79312 0.0382,-0.1376 0.18595,-0.23287 0.34115,-0.22 0.15931,0.0132 0.16781,0.0236 0.57468,0.70145 0.3198,0.5328 0.36557,0.60199 0.3821,0.57752 0.0104,-0.0153 0.16796,-0.27752 0.35028,-0.58275 0.18233,-0.30523 0.35234,-0.57711 0.37779,-0.60419 0.14369,-0.15277 0.40645,-0.11546 0.51203,0.0727 l 0.038,0.0678 0.004,1.33799 c 0.003,0.93657 -6.1e-4,1.35851 -0.0123,1.40641 -0.0247,0.10103 -0.0831,0.17582 -0.17165,0.21995 -0.12,0.0598 -0.24698,0.0456 -0.34976,-0.0391 -0.11098,-0.0915 -0.10839,-0.0713 -0.11687,-0.90974 l -0.007,-0.75172 -0.18074,0.30319 c -0.0994,0.16676 -0.19862,0.32286 -0.22046,0.34692 -0.11033,0.12145 -0.32572,0.13433 -0.45352,0.0271 -0.0265,-0.0223 -0.1341,-0.18413 -0.23911,-0.35973 l -0.19091,-0.3193 -1.1e-4,0.71461 c -6e-5,0.4625 -0.006,0.73605 -0.0165,0.77541 -0.0508,0.1888 -0.23745,0.29036 -0.42422,0.23088 z m 3.47749,-0.003 c -0.20874,-0.0415 -0.46655,-0.20476 -0.53948,-0.34157 -0.0303,-0.0568 -0.0356,-0.0855 -0.0311,-0.16892 0.007,-0.13168 0.0547,-0.20695 0.16621,-0.26253 0.13551,-0.0675 0.25594,-0.0491 0.38128,0.0581 0.0801,0.0686 0.14597,0.0894 0.25702,0.0814 0.17984,-0.013 0.28719,-0.14043 0.28719,-0.3409 0,-0.10158 -0.004,-0.11553 -0.0453,-0.16265 -0.0534,-0.0608 -0.10045,-0.0798 -0.40328,-0.16228 -0.29691,-0.081 -0.44857,-0.15444 -0.58588,-0.28397 -0.1273,-0.12009 -0.20153,-0.25756 -0.23535,-0.43587 -0.0676,-0.35636 0.0256,-0.66923 0.2726,-0.91502 0.1938,-0.19285 0.40566,-0.28054 0.67786,-0.28054 0.23882,0 0.46326,0.0821 0.62931,0.23005 0.10908,0.0972 0.14612,0.1679 0.14612,0.27885 0,0.15428 -0.0999,0.27923 -0.25009,0.31285 -0.11582,0.0259 -0.17564,0.006 -0.34138,-0.11547 -0.10291,-0.0752 -0.21803,-0.0827 -0.33718,-0.022 -0.12003,0.0612 -0.1728,0.16911 -0.16347,0.33417 0.009,0.16405 0.039,0.18483 0.41277,0.2879 0.27272,0.0752 0.38131,0.11811 0.50809,0.20072 0.22331,0.14548 0.34336,0.36807 0.36387,0.67463 0.0439,0.65602 -0.52767,1.16071 -1.16984,1.03297 z m -6.58499,-3.62951 c -0.0366,-0.29552 -0.0246,-0.71149 0.0298,-1.03009 0.23876,-1.39889 1.26755,-2.55303 2.62936,-2.94973 0.36902,-0.1075 0.63665,-0.14381 1.0564,-0.14334 0.37865,4e-4 0.56649,0.0236 0.92097,0.11327 1.46042,0.36975 2.56887,1.62143 2.76672,3.12425 0.0278,0.21081 0.0339,0.65899 0.0117,0.85143 l -0.0123,0.10643 -0.16532,0.004 -0.16532,0.004 0.01,-0.0423 c 0.006,-0.0233 0.0138,-0.17918 0.0188,-0.34643 0.009,-0.31664 -0.009,-0.53248 -0.0655,-0.79133 l -0.0249,-0.11333 h -0.62299 -0.62301 l 0.01,0.10263 c 0.0381,0.39158 0.0485,0.75603 0.0296,1.0415 l -0.01,0.14824 h -0.16598 c -0.16529,0 -0.16593,-1.1e-4 -0.15483,-0.0343 0.0313,-0.0961 0.006,-0.98405 -0.034,-1.20875 l -0.009,-0.0494 h -0.78133 -0.78133 v 0.64619 0.64618 h -0.15965 -0.15964 v -0.64631 -0.64633 l -0.78683,0.004 -0.78682,0.004 -0.0205,0.15965 c -0.0128,0.0998 -0.0214,0.34057 -0.0228,0.64239 l -0.002,0.48273 h -0.15373 -0.15372 l -0.01,-0.0798 c -0.024,-0.19977 -0.007,-0.85671 0.0293,-1.14032 l 0.009,-0.0722 h -0.62451 -0.62452 l -0.009,0.0418 c -0.005,0.023 -0.0152,0.0658 -0.0223,0.095 -0.0235,0.0972 -0.0577,0.37023 -0.0678,0.53976 -0.009,0.14996 0.0113,0.52078 0.0321,0.58917 0.007,0.0242 -0.007,0.0266 -0.15808,0.0266 h -0.16616 z m 1.72615,-1.67627 c 0.0457,-0.22156 0.10117,-0.42793 0.17085,-0.63479 l 0.0653,-0.19385 h -0.46652 -0.46653 l -0.0844,0.11784 c -0.11001,0.15367 -0.19318,0.29137 -0.27791,0.46008 -0.0696,0.13864 -0.15957,0.35312 -0.15957,0.38053 0,0.01 0.21168,0.0136 0.59528,0.011 l 0.59529,-0.004 z m 1.81854,-0.3459 0.004,-0.48274 h -0.61654 -0.61653 l -0.0282,0.0659 c -0.0713,0.16633 -0.18705,0.566 -0.25286,0.87314 l -0.007,0.0343 0.75675,-0.004 0.75674,-0.004 z m 1.8281,0.4591 c 0,-0.0913 -0.13554,-0.57521 -0.23078,-0.824 l -0.0451,-0.11784 h -0.61466 -0.61468 v 0.48654 0.48654 h 0.75261 c 0.74913,0 0.75262,-1.7e-4 0.75262,-0.0313 z m 1.52762,-0.003 c -0.006,-0.0188 -0.044,-0.11164 -0.0856,-0.20629 -0.0889,-0.20264 -0.20846,-0.41475 -0.33786,-0.59928 l -0.0931,-0.13279 -0.46916,-2.3e-4 c -0.44086,-2.3e-4 -0.4685,0.002 -0.45835,0.0263 0.0485,0.1195 0.15146,0.46779 0.19694,0.66645 0.0305,0.13311 0.0583,0.25057 0.0618,0.26102 0.005,0.0147 0.13886,0.019 0.60088,0.019 h 0.59447 l -0.01,-0.0342 z m -4.69947,-1.4391 c 0.10157,-0.18702 0.24247,-0.39032 0.36722,-0.52986 0.0467,-0.0522 0.0774,-0.095 0.0683,-0.095 -0.0345,0 -0.29542,0.10833 -0.46037,0.19111 -0.27326,0.13712 -0.64467,0.39574 -0.79341,0.55247 l -0.0446,0.047 0.38675,-5.2e-4 0.38675,-5.1e-4 z m 1.34733,-0.30754 v -0.47328 l -0.0629,0.0101 c -0.21976,0.0351 -0.54841,0.274 -0.76591,0.55666 -0.0787,0.10228 -0.23546,0.34656 -0.23546,0.36694 0,0.007 0.23947,0.0129 0.53216,0.0129 h 0.53215 z m 1.33746,0.38585 c -0.13215,-0.23559 -0.36573,-0.51143 -0.55109,-0.65076 -0.10283,-0.0773 -0.27169,-0.16248 -0.38725,-0.19535 l -0.0798,-0.0227 v 0.47811 0.47812 h 0.5336 0.5336 z m 1.12565,0.0241 c -0.23586,-0.21402 -0.49312,-0.39282 -0.76023,-0.52837 -0.16543,-0.084 -0.43783,-0.19892 -0.47133,-0.19892 -0.008,0 0.0263,0.0496 0.0773,0.11023 0.13526,0.16073 0.24304,0.31811 0.3496,0.51051 l 0.0941,0.16989 0.38946,-6.2e-4 0.38946,-6.3e-4 z"
         id="path1145223" />
    </g>
  </g>
</svg>
