<?xml version="1.0" encoding="UTF-8" standalone="no"?>
<!-- Created with Inkscape (http://www.inkscape.org/) -->

<svg
   width="536.414"
   height="57.515591"
   viewBox="0 0 141.9262 15.217667"
   version="1.1"
   id="svg2384"
   inkscape:version="1.1 (c68e22c387, 2021-05-23)"
   sodipodi:docname="legend_station.svg"
   xmlns:inkscape="http://www.inkscape.org/namespaces/inkscape"
   xmlns:sodipodi="http://sodipodi.sourceforge.net/DTD/sodipodi-0.dtd"
   xmlns="http://www.w3.org/2000/svg"
   xmlns:svg="http://www.w3.org/2000/svg">
  <sodipodi:namedview
     id="namedview2386"
     pagecolor="#ffffff"
     bordercolor="#666666"
     borderopacity="1.0"
     inkscape:pageshadow="2"
     inkscape:pageopacity="0.0"
     inkscape:pagecheckerboard="0"
     inkscape:document-units="mm"
     showgrid="false"
     units="px"
     inkscape:zoom="1.4467452"
     inkscape:cx="329.0144"
     inkscape:cy="44.582833"
     inkscape:window-width="2400"
     inkscape:window-height="1271"
     inkscape:window-x="2391"
     inkscape:window-y="-9"
     inkscape:window-maximized="1"
     inkscape:current-layer="text109784-5-9-4-6-7-7-5-7-6-1-3"
     fit-margin-top="1"
     fit-margin-right="1"
     fit-margin-bottom="1"
     fit-margin-left="1" />
  <defs
     id="defs2381" />
  <g
     inkscape:label="Calque 1"
     inkscape:groupmode="layer"
     id="layer1"
     transform="translate(-5.525955,-5.0100085)">
    <g
       aria-label="&gt; 12"
       id="text109784-5-9-4-6-7-7-5-7-6-6"
       style="font-size:10.5931px;line-height:1.25;font-family:Roboto;-inkscape-font-specification:'Roboto, Normal';display:inline;fill:#1a1a1a;stroke-width:0.733145">
      <path
         d="m 131.21322,10.786824 h 0.94279 l 2.65887,2.457599 -2.65887,2.457599 h -0.94279 l 2.66947,-2.457599 z"
         style="font-weight:300;font-family:Poppins;-inkscape-font-specification:'Poppins Light'"
         id="path3184" />
      <path
         d="M 138.82963,10.235983 V 9.5686174 h 1.80083 V 17.16387 h -0.75211 v -6.927887 z"
         style="font-weight:300;font-family:Poppins;-inkscape-font-specification:'Poppins Light'"
         id="path3186" />
      <path
         d="m 142.13468,16.581249 q 1.94913,-1.461847 3.00844,-2.616495 1.0699,-1.165241 1.0699,-2.277517 0,-0.730924 -0.37076,-1.165241 -0.36016,-0.44491 -1.18643,-0.44491 -0.80507,0 -1.24998,0.508469 -0.43432,0.497876 -0.48728,1.334731 h -0.72034 q 0.0636,-1.175834 0.72034,-1.822014 0.66736,-0.6567717 1.73726,-0.6567717 1.02753,0 1.66312,0.5826207 0.63559,0.572027 0.63559,1.631337 0,1.281765 -1.06991,2.489378 -1.05931,1.197021 -2.61649,2.341075 h 3.91944 v 0.624993 h -5.0529 z"
         style="font-weight:300;font-family:Poppins;-inkscape-font-specification:'Poppins Light'"
         id="path3188" />
    </g>
    <g
       aria-label="6 à 11"
       id="text109784-5-9-4-6-7-7-5-7-6-1-3"
       style="font-size:10.5931px;line-height:1.25;font-family:Roboto;-inkscape-font-specification:'Roboto, Normal';display:inline;fill:#1a1a1a;stroke-width:0.733145">
      <path
         d="m 80.039237,11.597207 q -0.233049,-1.377103 -1.599558,-1.377103 -1.038124,0 -1.557186,0.805076 -0.519062,0.805075 -0.47669,2.637681 0.211862,-0.635586 0.805076,-0.995751 0.603807,-0.370758 1.377103,-0.370758 1.112275,0 1.758455,0.688551 0.656772,0.677958 0.656772,1.874979 0,0.699144 -0.275421,1.271172 -0.264827,0.561434 -0.826262,0.900413 -0.550841,0.338979 -1.377103,0.338979 -1.578371,0 -2.182178,-1.006344 -0.593214,-1.006345 -0.593214,-2.849544 0,-3.9194469 2.690648,-3.9194469 1.016937,0 1.599558,0.5614339 0.58262,0.550842 0.688551,1.440662 z m -1.588965,1.33473 q -0.497876,0 -0.942786,0.201269 -0.44491,0.201269 -0.730924,0.6144 -0.275421,0.402538 -0.275421,0.995752 0,0.858041 0.508469,1.430068 0.508469,0.572027 1.483034,0.572027 0.815669,0 1.302951,-0.497875 0.487283,-0.497876 0.487283,-1.355917 0,-0.9216 -0.47669,-1.440662 -0.476689,-0.519062 -1.355916,-0.519062 z"
         style="font-weight:300;font-family:Poppins;-inkscape-font-specification:'Poppins Light'"
         id="path3191" />
      <path
         d="m 85.060344,14.436158 q 0,-0.889821 0.349572,-1.557186 0.360166,-0.677958 0.985158,-1.038124 0.635586,-0.370758 1.430069,-0.370758 0.826262,0 1.419475,0.381351 0.603807,0.381352 0.868634,0.974565 v -1.271171 h 0.741517 v 5.783832 h -0.741517 v -1.281765 q -0.27542,0.593213 -0.879227,0.985158 -0.593213,0.381352 -1.419475,0.381352 -0.78389,0 -1.419476,-0.370759 -0.624992,-0.370758 -0.985158,-1.048717 -0.349572,-0.677958 -0.349572,-1.567778 z m 5.052908,0.01059 q 0,-0.699145 -0.286013,-1.2288 -0.286014,-0.529655 -0.78389,-0.815668 -0.487282,-0.286014 -1.080496,-0.286014 -0.6144,0 -1.101682,0.27542 -0.487283,0.275421 -0.773296,0.805076 -0.275421,0.519062 -0.275421,1.239393 0,0.709737 0.275421,1.249985 0.286013,0.529655 0.773296,0.815669 0.487282,0.275421 1.101682,0.275421 0.593214,0 1.080496,-0.286014 0.497876,-0.286014 0.78389,-0.815669 0.286013,-0.529655 0.286013,-1.228799 z m -0.995751,-3.908854 v 0.572027 L 86.945916,9.8493455 V 9.1819802 Z"
         style="font-weight:300;font-family:Poppins;-inkscape-font-specification:'Poppins Light'"
         id="path3193" />
      <path
         d="M 94.933086,10.41078 V 9.7434145 h 1.800827 v 7.5952525 h -0.75211 V 10.41078 Z"
         style="font-weight:300;font-family:Poppins;-inkscape-font-specification:'Poppins Light'"
         id="path3195" />
      <path
         d="M 98.02627,10.41078 V 9.7434145 h 1.800827 v 7.5952525 h -0.75211 V 10.41078 Z"
         style="font-weight:300;font-family:Poppins;-inkscape-font-specification:'Poppins Light'"
         id="path3197" />
    </g>
    <g
       aria-label="&lt; 6"
       id="text109784-5-9-4-6-7-7-5-7-6-1-4-6"
       style="font-size:10.5931px;line-height:1.25;font-family:Roboto;-inkscape-font-specification:'Roboto, Normal';display:inline;fill:#1a1a1a;stroke-width:0.733145">
      <path
         d="m 28.457964,15.696754 -2.658868,-2.457599 2.658868,-2.457599 h 0.942786 l -2.669462,2.457599 2.669462,2.457599 z"
         style="font-weight:300;font-family:Poppins;-inkscape-font-specification:'Poppins Light'"
         id="path3200" />
      <path
         d="m 38.341304,11.417142 q -0.233048,-1.377103 -1.599558,-1.377103 -1.038123,0 -1.557185,0.805075 -0.519062,0.805076 -0.47669,2.637682 0.211862,-0.635586 0.805076,-0.995751 0.603806,-0.370759 1.377103,-0.370759 1.112275,0 1.758454,0.688552 0.656772,0.677958 0.656772,1.874978 0,0.699145 -0.27542,1.271172 -0.264828,0.561435 -0.826262,0.900414 -0.550841,0.338979 -1.377103,0.338979 -1.578372,0 -2.182178,-1.006344 -0.593214,-1.006345 -0.593214,-2.849544 0,-3.919447 2.690647,-3.919447 1.016938,0 1.599558,0.5614342 0.582621,0.5508408 0.688552,1.4406618 z m -1.588965,1.33473 q -0.497875,0 -0.942785,0.201269 -0.444911,0.201269 -0.730924,0.6144 -0.275421,0.402538 -0.275421,0.995751 0,0.858041 0.508469,1.430069 0.508469,0.572027 1.483034,0.572027 0.815669,0 1.302951,-0.497875 0.487283,-0.497876 0.487283,-1.355917 0,-0.9216 -0.47669,-1.440662 -0.476689,-0.519062 -1.355917,-0.519062 z"
         style="font-weight:300;font-family:Poppins;-inkscape-font-specification:'Poppins Light'"
         id="path3202" />
    </g>
    <path
       style="fill:#aacf6b;fill-opacity:1;stroke-width:0.0141378"
       d="m 111.26519,19.953682 c 0,-0.01411 8.46034,-14.6789862 8.46853,-14.6790902 0.004,-4.9e-5 1.91347,3.3048433 4.24351,7.3442052 l 4.23644,7.344295 h -8.47424 c -4.66083,0 -8.47424,-0.0042 -8.47424,-0.0094 z"
       id="path2746" />
    <path
       style="fill:#eeb245;fill-opacity:1;stroke-width:0.0141378"
       d="m 56.940362,19.953682 c 0,-0.01411 8.46034,-14.6789852 8.46853,-14.6790892 0.004,-4.9e-5 1.91347,3.304843 4.24351,7.3442052 l 4.23644,7.344294 h -8.47424 c -4.66083,0 -8.47424,-0.0042 -8.47424,-0.0094 z"
       id="path2746-3" />
    <path
       style="fill:#e34b4b;fill-opacity:1;stroke-width:0.0141378"
       d="m 5.7905383,19.953682 c 0,-0.01411 8.4603397,-14.6789852 8.4685297,-14.6790892 0.004,-4.9e-5 1.91347,3.304843 4.24351,7.3442042 l 4.23644,7.344295 h -8.47424 c -4.6608297,0 -8.4742397,-0.0042 -8.4742397,-0.0094 z"
       id="path2746-3-9" />
  </g>
</svg>
