<?xml version="1.0" encoding="UTF-8" standalone="no"?>
<!-- Created with Inkscape (http://www.inkscape.org/) -->

<svg
   width="74.186943mm"
   height="13.658101mm"
   viewBox="0 0 74.186943 13.658101"
   version="1.1"
   id="svg4467"
   inkscape:version="1.1 (c68e22c387, 2021-05-23)"
   sodipodi:docname="logoTNT_home.svg"
   xmlns:inkscape="http://www.inkscape.org/namespaces/inkscape"
   xmlns:sodipodi="http://sodipodi.sourceforge.net/DTD/sodipodi-0.dtd"
   xmlns="http://www.w3.org/2000/svg"
   xmlns:svg="http://www.w3.org/2000/svg">
  <sodipodi:namedview
     id="namedview4469"
     pagecolor="#ffffff"
     bordercolor="#666666"
     borderopacity="1.0"
     inkscape:pageshadow="2"
     inkscape:pageopacity="0.0"
     inkscape:pagecheckerboard="0"
     inkscape:document-units="mm"
     showgrid="false"
     fit-margin-top="0"
     fit-margin-left="0"
     fit-margin-right="0"
     fit-margin-bottom="0"
     inkscape:zoom="2.8934905"
     inkscape:cx="159.32315"
     inkscape:cy="-10.540902"
     inkscape:window-width="2400"
     inkscape:window-height="1271"
     inkscape:window-x="2391"
     inkscape:window-y="-9"
     inkscape:window-maximized="1"
     inkscape:current-layer="layer1" />
  <defs
     id="defs4464" />
  <g
     inkscape:label="Calque 1"
     inkscape:groupmode="layer"
     id="layer1"
     transform="translate(-62.759886,-151.12115)">
    <g
       aria-label="MétaTNT"
       id="text4450-2"
       style="font-size:13.5219px;line-height:1.25;font-family:Roboto;-inkscape-font-specification:'Roboto, Normal';display:inline;fill:#00847f;stroke-width:0.845121">
      <path
         d="m 87.010563,154.06194 v 9.35716 H 85.78007 v -6.9773 l -3.110037,6.9773 h -0.865402 l -3.123558,-6.99082 v 6.99082 H 77.45058 v -9.35716 h 1.325146 l 3.461606,7.73453 3.461607,-7.73453 z"
         style="font-weight:normal;-inkscape-font-specification:Poppins"
         id="path4615" />
      <path
         d="m 95.853861,159.43014 q 0,0.35157 -0.04057,0.7437 h -5.922592 q 0.06761,1.09528 0.743704,1.71728 0.689617,0.60849 1.663194,0.60849 0.797792,0 1.325146,-0.36509 0.540876,-0.37862 0.757227,-1.00062 h 1.325146 q -0.297482,1.06823 -1.189927,1.74432 -0.892446,0.66258 -2.217592,0.66258 -1.054708,0 -1.893066,-0.47327 -0.824836,-0.47327 -1.298102,-1.33867 -0.473267,-0.87892 -0.473267,-2.02828 0,-1.14937 0.459745,-2.01477 0.459744,-0.8654 1.28458,-1.32514 0.838358,-0.47327 1.92011,-0.47327 1.054708,0 1.866022,0.45974 0.811314,0.45975 1.244015,1.27106 0.446223,0.79779 0.446223,1.81194 z m -1.271059,-0.25692 q 0,-0.70314 -0.311003,-1.20345 -0.311004,-0.51383 -0.85188,-0.77075 -0.527354,-0.27043 -1.176406,-0.27043 -0.933011,0 -1.595584,0.59496 -0.649051,0.59496 -0.743704,1.64967 z m -1.014142,-5.26002 -2.880165,1.5415 v -0.91949 l 2.880165,-1.69024 z"
         style="font-weight:normal;-inkscape-font-specification:Poppins"
         id="path4617" />
      <path
         d="m 98.977405,157.02324 v 4.36757 q 0,0.54088 0.229872,0.77075 0.229872,0.21635 0.797793,0.21635 h 0.90597 v 1.04119 h -1.108799 q -1.027665,0 -1.541497,-0.47327 -0.513832,-0.47327 -0.513832,-1.55502 v -4.36757 h -0.960055 v -1.01414 h 0.960055 v -1.86603 h 1.230493 v 1.86603 h 1.933635 v 1.01414 z"
         style="font-weight:normal;-inkscape-font-specification:Poppins"
         id="path4619" />
      <path
         d="m 101.93868,159.68705 q 0,-1.13584 0.45975,-1.98772 0.45974,-0.8654 1.25753,-1.33866 0.81132,-0.47327 1.79841,-0.47327 0.97358,0 1.69024,0.41918 0.71666,0.41918 1.06823,1.05471 v -1.35219 h 1.24402 v 7.41 h -1.24402 v -1.37924 q -0.36509,0.64906 -1.09527,1.08176 -0.71666,0.41918 -1.67672,0.41918 -0.9871,0 -1.78489,-0.48679 -0.79779,-0.48679 -1.25753,-1.36572 -0.45975,-0.87892 -0.45975,-2.00124 z m 6.27416,0.0135 q 0,-0.83836 -0.33805,-1.46037 -0.33804,-0.62201 -0.91948,-0.94653 -0.56792,-0.33805 -1.25754,-0.33805 -0.68962,0 -1.25754,0.32453 -0.56792,0.32452 -0.90597,0.94653 -0.33804,0.62201 -0.33804,1.46036 0,0.85188 0.33804,1.48741 0.33805,0.62201 0.90597,0.96006 0.56792,0.32452 1.25754,0.32452 0.68962,0 1.25754,-0.32452 0.58144,-0.33805 0.91948,-0.96006 0.33805,-0.63553 0.33805,-1.47388 z"
         style="font-weight:normal;-inkscape-font-specification:Poppins"
         id="path4621" />
      <path
         d="m 118.43538,153.88616 v 2.10941 h -2.54212 v 7.42353 h -2.65029 v -7.42353 h -2.51507 v -2.10941 z"
         style="font-weight:800;-inkscape-font-specification:'Poppins Ultra-Bold'"
         id="path4623" />
      <path
         d="m 128.25226,163.4191 h -2.6503 l -3.52921,-5.32763 v 5.32763 h -2.65029 v -9.53294 h 2.65029 l 3.52921,5.39524 v -5.39524 h 2.6503 z"
         style="font-weight:800;-inkscape-font-specification:'Poppins Ultra-Bold'"
         id="path4625" />
      <path
         d="m 136.94683,153.88616 v 2.10941 h -2.54212 v 7.42353 h -2.65029 v -7.42353 h -2.51507 v -2.10941 z"
         style="font-weight:800;-inkscape-font-specification:'Poppins Ultra-Bold'"
         id="path4627" />
    </g>
    <path
       style="display:inline;fill:#00847f;fill-opacity:0.557508;stroke-width:0.026873"
       d="m 70.471731,162.25212 c -0.433212,-0.0947 -0.7324,-0.23621 -1.07163,-0.50648 -0.577813,-0.46037 -0.911955,-1.19577 -0.912372,-2.0081 -1.14e-4,-0.2255 -0.06949,-0.60236 -0.162144,-0.88006 -0.235697,-0.70698 -0.694884,-1.2935 -1.331649,-1.70082 -0.471566,-0.30165 -0.986363,-0.46046 -1.583409,-0.48842 -0.630121,-0.0294 -1.230129,0.11126 -1.735015,0.40722 -0.09132,0.0535 -0.168979,0.0938 -0.172776,0.0894 -0.01139,-0.0133 0.344717,-0.64409 0.538112,-0.95357 0.413619,-0.66187 0.991926,-1.4589 1.657475,-2.28439 0.418118,-0.51859 2.374211,-2.80514 2.40026,-2.80575 0.01899,-4.4e-4 1.247179,1.42814 1.921291,2.23331 2.015615,2.4075 2.996756,4.04591 3.29359,5.49993 0.06645,0.32548 0.06968,0.37686 0.05696,0.90931 -0.01519,0.61717 -0.03702,0.74191 -0.191269,1.07492 -0.322161,0.69528 -0.916322,1.19572 -1.645855,1.38629 -0.308453,0.0807 -0.764336,0.0923 -1.061549,0.0272 z"
       id="path11156-4"
       sodipodi:nodetypes="cssssscssssssssccc" />
    <path
       style="display:inline;fill:#00847f;fill-opacity:1;stroke-width:0.026873"
       d="m 67.634214,164.7665 c -0.96094,-0.10955 -1.657854,-0.33978 -2.396065,-0.79161 -1.433245,-0.87723 -2.397374,-2.49548 -2.472086,-4.1492 -0.01329,-0.30013 -0.0076,-0.38295 0.04158,-0.58789 0.12455,-0.51867 0.429225,-1.0116 0.822566,-1.33091 0.940624,-0.76358 2.301778,-0.7321 3.212993,0.0742 0.42351,0.37479 0.744115,1.00295 0.791011,1.54986 0.0076,0.0881 0.0262,0.31263 0.04139,0.49886 0.03437,0.4212 0.123792,0.76238 0.292657,1.11604 0.425485,0.89124 1.158265,1.50202 2.098073,1.74873 0.316218,0.083 0.933124,0.11411 1.256482,0.0632 0.242209,-0.038 0.581876,-0.13271 0.769499,-0.21435 0.07234,-0.0315 0.135373,-0.0534 0.14012,-0.0486 0.01709,0.0171 -0.360191,0.43914 -0.569573,0.63819 -0.848635,0.80675 -1.946941,1.30852 -3.112744,1.42206 -0.274145,0.0266 -0.731337,0.0325 -0.915733,0.0114 z"
       id="path11156-3-7"
       sodipodi:nodetypes="csscsscssccccsccc" />
  </g>
</svg>
