<?xml version="1.0" encoding="UTF-8" standalone="no"?>
<!-- Created with Inkscape (http://www.inkscape.org/) -->

<svg
   width="100"
   height="100"
   viewBox="0 0 26.458333 26.458334"
   version="1.1"
   id="svg2384"
   inkscape:version="1.1 (c68e22c387, 2021-05-23)"
   sodipodi:docname="TNT_logoNavbar.svg"
   xmlns:inkscape="http://www.inkscape.org/namespaces/inkscape"
   xmlns:sodipodi="http://sodipodi.sourceforge.net/DTD/sodipodi-0.dtd"
   xmlns="http://www.w3.org/2000/svg"
   xmlns:svg="http://www.w3.org/2000/svg">
  <sodipodi:namedview
     id="namedview2386"
     pagecolor="#ffffff"
     bordercolor="#666666"
     borderopacity="1.0"
     inkscape:pageshadow="2"
     inkscape:pageopacity="0.0"
     inkscape:pagecheckerboard="0"
     inkscape:document-units="px"
     showgrid="false"
     units="px"
     inkscape:zoom="4.0920134"
     inkscape:cx="75.757327"
     inkscape:cy="63.416214"
     inkscape:window-width="2400"
     inkscape:window-height="1271"
     inkscape:window-x="2391"
     inkscape:window-y="-9"
     inkscape:window-maximized="1"
     inkscape:current-layer="layer1">
    <inkscape:grid
       type="xygrid"
       id="grid2682" />
  </sodipodi:namedview>
  <defs
     id="defs2381" />
  <g
     inkscape:label="Calque 1"
     inkscape:groupmode="layer"
     id="layer1">
    <g
       id="g2464"
       transform="matrix(3.1610549,0,0,3.1610549,-209.91717,-318.59987)">
      <path
         style="display:inline;fill:#ffffff;fill-opacity:0.624398;stroke-width:0.0141538"
         d="m 71.858366,107.23992 c -0.228175,-0.0499 -0.385755,-0.12441 -0.56442,-0.26676 -0.304335,-0.24247 -0.480319,-0.6298 -0.480546,-1.05765 -5.4e-5,-0.11877 -0.03662,-0.31726 -0.08538,-0.46352 -0.124133,-0.37236 -0.36599,-0.68128 -0.701362,-0.89581 -0.248377,-0.15888 -0.519512,-0.24252 -0.83397,-0.25725 -0.33188,-0.0156 -0.647906,0.0586 -0.913823,0.21448 -0.04807,0.0282 -0.08903,0.0494 -0.091,0.0471 -0.006,-0.007 0.181557,-0.33924 0.283421,-0.50224 0.217849,-0.3486 0.522437,-0.76839 0.872974,-1.20317 0.220222,-0.27314 1.250482,-1.47745 1.264207,-1.47777 0.0096,-2.3e-4 0.656874,0.75219 1.011923,1.17627 1.061612,1.26801 1.578378,2.13095 1.734714,2.89677 0.035,0.17143 0.03669,0.19849 0.02998,0.47893 -0.0078,0.32506 -0.01947,0.39076 -0.100741,0.56615 -0.16968,0.36619 -0.482621,0.62978 -0.866858,0.73015 -0.162464,0.0425 -0.40257,0.0486 -0.559111,0.0143 z"
         id="path11156"
         sodipodi:nodetypes="cssssscssssssssccc" />
      <path
         style="display:inline;fill:#ffffff;fill-opacity:0.955056;stroke-width:0.0141538"
         d="m 70.363864,108.56423 c -0.506124,-0.0577 -0.87318,-0.17896 -1.261987,-0.41694 -0.754879,-0.46203 -1.262684,-1.31435 -1.30203,-2.18536 -0.0071,-0.15807 -0.0041,-0.20169 0.02186,-0.30964 0.06561,-0.27318 0.226062,-0.53279 0.433236,-0.70097 0.495419,-0.40217 1.212334,-0.38559 1.692263,0.0391 0.223053,0.19739 0.391914,0.52825 0.416619,0.8163 0.004,0.0464 0.01379,0.16466 0.02178,0.26274 0.01809,0.22185 0.06521,0.40155 0.154135,0.58782 0.224102,0.46941 0.610055,0.79109 1.105039,0.92104 0.16655,0.0437 0.491471,0.0601 0.661788,0.0333 0.127563,-0.02 0.30647,-0.0699 0.40529,-0.1129 0.03808,-0.0166 0.07127,-0.0281 0.07376,-0.0256 0.0088,0.009 -0.18971,0.23129 -0.29999,0.33613 -0.44697,0.42491 -1.025447,0.68919 -1.639462,0.74899 -0.14439,0.014 -0.385195,0.0171 -0.482309,0.006 z"
         id="path11156-3"
         sodipodi:nodetypes="csscsscssccccsccc" />
    </g>
  </g>
</svg>
